# xmcd CD database file
#
# Track frame offsets:
#	150
#	9517
#	21715
#	31205
#	43758
#	55589
#	65177
#	80554
#	88464
#	100214
#
# Disc length: 1500 seconds
#
# Revision: 0
# Processed by: cddbd v1.5.1PL0 Copyright (c) Steve Scherf et al.
# Submitted via: CDex 1.51
#
DISCID=8705da0a
DTITLE=Jim Reeves - The Best of Jim Reeves (Vol. 1)
DYEAR=1900
DGENRE=Country
TTITLE0=I Won't Forget You
TTITLE1=Mexican Joe
TTITLE2=There's a Heartache Following Me
TTITLE3=Precious Memories
TTITLE4=I'll Fly Away
TTITLE5=Dear Hearts And Gentle People
TTITLE6=Bottle, Take Effect
TTITLE7=Til The End Of The World
TTITLE8=Penny Candy
TTITLE9=Stand At Your Window
EXTD=
EXTT0=
EXTT1=
EXTT2=
EXTT3=
EXTT4=
EXTT5=
EXTT6=
EXTT7=
EXTT8=
EXTT9=
PLAYORDER=
